<?xml version="1.0" encoding="utf-8"?>
<!-- Generator: Adobe Illustrator 27.5.0, SVG Export Plug-In . SVG Version: 6.00 Build 0)  -->
<svg version="1.1" id="レイヤー_1" xmlns="http://www.w3.org/2000/svg" xmlns:xlink="http://www.w3.org/1999/xlink" x="0px"
	 y="0px" viewBox="0 0 800 800" style="enable-background:new 0 0 800 800;" xml:space="preserve">
<style type="text/css">
	.st0{fill:#E44D26;}
	.st1{fill:#F16529;}
	.st2{fill:#EBEBEB;}
	.st3{fill:#FFFFFF;}
</style>
<path class="st0" d="M648,186.6l-45.2,506.1L399.7,749l-202.5-56.2L152,186.6H648L648,186.6z"/>
<path class="st1" d="M400,706l164.1-45.5l38.6-432.5H400V706z"/>
<path class="st2" d="M312.2,352.1H400V290H244.3l1.5,16.7l15.3,171.1H400v-62.1h-82.2L312.2,352.1z M326.2,508.8h-62.3l8.7,97.5
	l127.2,35.3l0.3-0.1v-64.6l-0.3,0.1l-69.1-18.7L326.2,508.8L326.2,508.8z"/>
<path d="M198.2,49h31.6v31.2h28.9V49h31.6v94.4h-31.6v-31.6h-28.9v31.6h-31.6L198.2,49L198.2,49z M331.6,80.3h-27.8V49H391v31.3
	h-27.8v63.1h-31.6L331.6,80.3L331.6,80.3L331.6,80.3z M404.8,49h32.9l20.2,33.2L478.2,49h32.9v94.4h-31.4V96.6l-21.7,33.6h-0.5
	l-21.7-33.6v46.8h-30.9V49z M526.8,49h31.6v63.2h44.4v31.2h-75.9L526.8,49L526.8,49z"/>
<path class="st3" d="M399.8,477.8h76.5l-7.2,80.5L399.8,577v64.6l127.3-35.3l0.9-10.5l14.6-163.4l1.5-16.7H399.8V477.8L399.8,477.8z
	 M399.8,352v0.2h150l1.2-14l2.8-31.5l1.5-16.7H399.8V352L399.8,352z"/>
</svg>
